{"title":"Soul Surfer *2011* [BluRay.1080p.DTS.x264-miguel] [ENG]","uid":6565846,"size":11776148760,"categoryP":"video","categoryS":"hd___movies","magnet":"?xt=urn:btih:183019b04abe0de1f05d6a11e16d08821650fabb&amp;dn=Soul+Surfer+%2A2011%2A+%5BBluRay.1080p.DTS.x264-miguel%5D+%5BENG%5D&amp;tr=udp%3A%2F%2Ftracker.openbittorrent.com%3A80&amp;tr=udp%3A%2F%2Fopen.demonii.com%3A1337&amp;tr=udp%3A%2F%2Ftracker.coppersurfer.tk%3A6969&amp;tr=udp%3A%2F%2Fexodus.desync.com%3A6969","seeders":1,"leechers":1,"uploader":"miguel1983","files":-1,"time":1311676301,"description":" &lt;a href=&quot;http://img88.imageshack.us/img88/8892/23779front.jpg&quot; rel=&quot;nofollow&quot; target=&quot;_NEW&quot;&gt;http://img88.imageshack.us/img88/8892/23779front.jpg&lt;/a&gt;\n\nCountry.......: USA\nGenre.........: Drama, Sport\nDate release..: 08.04.2011 [World]\nDirector......: Sean McNamara\nWriters.......: Sean McNamara, Deborah Schwartz\nDuration......: 106 min.\nMore..........: http://www.imdb.com/title/tt1596346\nTrailer.......: http://www.imdb.com/video/imdb/vi1864210969\nTrailer.......:\n\nPilot :\nA teenage surfer girl summons the courage to go back into the ocean after losing an arm in a shark attack. \n\nCats :\nAnnaSophia Robb   \t ...  \tBethany Hamilton\nDennis Quaid \t... \tTom Hamilton\nHelen Hunt \t... \tCheri Hamilton\nCarrie Underwood \t... \tSarah Hill\nRoss Thomas \t... \tNoah Hamilton\nLorraine Nicholson \t... \tAlana Blanchard\nKevin Sorbo \t... \tHolt Blanchard\nCody Gomes \t... \tKeoki\nSonya Balmores \t... \tMalina Birch\nBeau Hodge \t... \tNationals Surf Commentator #2\nRocky Canon \t... \tRegionals Surf Commentator #1\nKaipo Guerrero \t... \tRegionals Surf Commentator #2\nDylan Slater \t... \tTurtle Bay Invitational Commentator\nChris Brochu \t... \tTimmy\nChristie Brooke \t... \tBethany Fan \n\nData Technical :\n!!! SAMPLE !!!\nAudio.....: English\nSubtitles.: Polish .srt, Polish .txt\nFormat                           : Matroska\nFile size                        : 10.9 GiB\nDuration                         : 1h 46mn\nOverall bit rate                 : 14.6 Mbps\nEncoded date                     : UTC 2011-06-26 08:13:04\nWriting application              : mkvmerge v3.2.0 ('Beginnings') Feb 12 2010 16:46:17\nWriting library                  : libebml v0.7.9 + libmatroska v0.8.1\nVideo\nID                               : 1\nFormat                           : AVC\nFormat/Info                      : Advanced Video Codec\nFormat profile                   : &lt;a class=&quot;__cf_email__&quot; href=&quot;/cdn-cgi/l/email-protection&quot; data-cfemail=&quot;e0a8898788a0acd4ced1&quot;&gt;[email&amp;#160;protected]&lt;/a&gt;&lt;script cf-hash='f9e31' type=&quot;text/javascript&quot;&gt;\n/* &lt;![CDATA[ */!function(){try{var t=&quot;currentScript&quot;in document?document.currentScript:function(){for(var t=document.getElementsByTagName(&quot;script&quot;),e=t.length;e--;)if(t[e].getAttribute(&quot;cf-hash&quot;))return t[e]}();if(t&amp;&amp;t.previousSibling){var e,r,n,i,c=t.previousSibling,a=c.getAttribute(&quot;data-cfemail&quot;);if(a){for(e=&quot;&quot;,r=parseInt(a.substr(0,2),16),n=2;a.length-n;n+=2)i=parseInt(a.substr(n,2),16)^r,e+=String.fromCharCode(i);e=document.createTextNode(e),c.parentNode.replaceChild(e,c)}}}catch(u){}}();/* ]]&gt; */&lt;/script&gt;\nFormat settings, CABAC           : Yes\nFormat settings, ReFrames        : 5 frames\nFormat settings, GOP             : M=4, N=9\nMuxing mode                      : Container profile=&lt;a class=&quot;__cf_email__&quot; href=&quot;/cdn-cgi/l/email-protection&quot; data-cfemail=&quot;c99ca7a2a7a6bea789fde7f8&quot;&gt;[email&amp;#160;protected]&lt;/a&gt;&lt;script cf-hash='f9e31' type=&quot;text/javascript&quot;&gt;\n/* &lt;![CDATA[ */!function(){try{var t=&quot;currentScript&quot;in document?document.currentScript:function(){for(var t=document.getElementsByTagName(&quot;script&quot;),e=t.length;e--;)if(t[e].getAttribute(&quot;cf-hash&quot;))return t[e]}();if(t&amp;&amp;t.previousSibling){var e,r,n,i,c=t.previousSibling,a=c.getAttribute(&quot;data-cfemail&quot;);if(a){for(e=&quot;&quot;,r=parseInt(a.substr(0,2),16),n=2;a.length-n;n+=2)i=parseInt(a.substr(n,2),16)^r,e+=String.fromCharCode(i);e=document.createTextNode(e),c.parentNode.replaceChild(e,c)}}}catch(u){}}();/* ]]&gt; */&lt;/script&gt;\nCodec ID                         : V_MPEG4/ISO/AVC\nDuration                         : 1h 46mn\nBit rate                         : 13.1 Mbps\nWidth                            : 1 920 pixels\nHeight                           : 800 pixels\nDisplay aspect ratio             : 2.40:1\nFrame rate                       : 23.976 fps\nColor space                      : YUV\nChroma subsampling               : 4:2:0\nBit depth                        : 8 bits\nScan type                        : Progressive\nBits/(Pixel*Frame)               : 0.356\nStream size                      : 9.54 GiB (88%)\nTitle                            : Soul.Surfer.2011\nWriting library                  : x264 core 114 r1924 08d04a4\nAudio\nID                               : 2\nFormat                           : DTS\nFormat/Info                      : Digital Theater Systems\nCodec ID                         : A_DTS\nDuration                         : 1h 46mn\nBit rate mode                    : Constant\nBit rate                         : 1 510 Kbps\nChannel(s)                       : 6 channels\nChannel positions                : Front: L C R, Side: L R, LFE\nSampling rate                    : 48.0 KHz\nBit depth                        : 24 bits\nStream size                      : 1.12 GiB (10%)\nTitle                            : dts-core 1536k\n\nScreen : &lt;a href=&quot;\nhttp://img856.imageshack.us/img856/1014/soulsurfer2011s1.png&quot; rel=&quot;nofollow&quot; target=&quot;_NEW&quot;&gt;\nhttp://img856.imageshack.us/img856/1014/soulsurfer2011s1.png&lt;/a&gt; &lt;a href=&quot;\nhttp://img836.imageshack.us/img836/6866/soulsurfer2011s2.png&quot; rel=&quot;nofollow&quot; target=&quot;_NEW&quot;&gt;\nhttp://img836.imageshack.us/img836/6866/soulsurfer2011s2.png&lt;/a&gt; &lt;a href=&quot;\nhttp://img687.imageshack.us/img687/411/soulsurfer2011s3.png&quot; rel=&quot;nofollow&quot; target=&quot;_NEW&quot;&gt;\nhttp://img687.imageshack.us/img687/411/soulsurfer2011s3.png&lt;/a&gt; &lt;a href=&quot;\nhttp://img543.imageshack.us/img543/6766/soulsurfer2011s4.png&quot; rel=&quot;nofollow&quot; target=&quot;_NEW&quot;&gt;\nhttp://img543.imageshack.us/img543/6766/soulsurfer2011s4.png&lt;/a&gt; &lt;a href=&quot;\nhttp://img23.imageshack.us/img23/1899/soulsurfer2011s5.png&quot; rel=&quot;nofollow&quot; target=&quot;_NEW&quot;&gt;\nhttp://img23.imageshack.us/img23/1899/soulsurfer2011s5.png&lt;/a&gt;","torrent":{"xt":"urn:btih:183019b04abe0de1f05d6a11e16d08821650fabb","amp;dn":"Soul+Surfer+%2A2011%2A+%5BBluRay.1080p.DTS.x264-miguel%5D+%5BENG%5D","amp;tr":["udp%3A%2F%2Ftracker.openbittorrent.com%3A80","udp%3A%2F%2Fopen.demonii.com%3A1337","udp%3A%2F%2Ftracker.coppersurfer.tk%3A6969","udp%3A%2F%2Fexodus.desync.com%3A6969"],"infoHash":"183019b04abe0de1f05d6a11e16d08821650fabb","infoHashBuffer":{"type":"Buffer","data":[24,48,25,176,74,190,13,225,240,93,106,17,225,109,8,130,22,80,250,187]},"announce":[],"urlList":[]}}